# xmcd
#
# Track frame offsets:
#	183
#	14780
#	24353
#	38858
#	52453
#	66073
#	80713
#	97608
#	114240
#	148425
#	163098
#	176868
#	188475
#	201630
#
# Disc length: 2852 seconds
#
# Revision: 2
# Processed by: cddbd v1.5.2PL0 Copyright (c) Steve Scherf et al.
# Submitted via: audiograbber 1.83.01
#
DISCID=cd0b220e
DTITLE=Herman, Woody and His Orchestra - At the woodchoppers ball
DYEAR=1900
DGENRE=Jazz
TTITLE0=At the woodchoppers ball
TTITLE1=On the Atchison, Topeka and Santa Fe
TTITLE2=Wild root
TTITLE3=Bijou
TTITLE4=Caldonia
TTITLE5=Put that ring on my finger
TTITLE6=There, I've said it again
TTITLE7=Who dat up dere
TTITLE8=Apple honey
TTITLE9=Goosey gander
TTITLE10=I'll get by (as long as I have you)
TTITLE11=Walkin' my baby back home
TTITLE12=Spruce juice
TTITLE13=A kiss goodnight
EXTD=
EXTT0=
EXTT1=
EXTT2=
EXTT3=
EXTT4=
EXTT5=
EXTT6=
EXTT7=
EXTT8=
EXTT9=
EXTT10=
EXTT11=
EXTT12=
EXTT13=
PLAYORDER=
